# xmcd
#
# Track frame offsets:
#	150
#	15663
#	32040
#	47524
#	65647
#	80778
#	97722
#	112863
#	130761
#	145338
#	158933
#	175542
#	191091
#	209296
#	221250
#	223171
#	238886
#
# Disc length: 3395 seconds
#
# Revision: 2
# Processed by: cddbd v1.5.2PL0 Copyright (c) Steve Scherf et al.
# Submitted via: audiograbber 1.83.01
#
DISCID=ed0d4111
DTITLE=Various Artist - Promo Only Country Radio 2005 - 04
DYEAR=2005
DGENRE=Country
TTITLE0=Tracy Byrd - Tiny Town
TTITLE1=LeAnn Rimes - Probably Wouldn't Be This Way
TTITLE2=Gretchen Wilson - Homewrecker
TTITLE3=Van Zant - Help Somebody
TTITLE4=Hot Apple Pie - Hillbillies
TTITLE5=Blue Country - That Summer Song
TTITLE6=Glenn Cummings - Good Old Days
TTITLE7=Reba McEntire - My Sister
TTITLE8=Brian McComas - The Middle Of Nowhere
TTITLE9=Jon Randall - Baby Won't You Come Home
TTITLE10=Pat Green - Baby Doll
TTITLE11=Kevin Sharp - Your Love Reaches Me
TTITLE12=Kevin Fowler - Hard Man To Love
TTITLE13=Joey Marrtin - Red
TTITLE14=Jim Thayer - A Man Needs To Get A Little Pushy Sometimes
TTITLE15=Fanny Grace - Sweet Tea
TTITLE16=Eddie Bush - It's Hard To Stop A Train
EXTD=
EXTT0=
EXTT1=
EXTT2=
EXTT3=
EXTT4=
EXTT5=
EXTT6=
EXTT7=
EXTT8=
EXTT9=
EXTT10=
EXTT11=
EXTT12=
EXTT13=
EXTT14=
EXTT15=
EXTT16=
PLAYORDER=
